<svg width="219" height="195" viewBox="0 0 219 195" fill="none" xmlns="http://www.w3.org/2000/svg">
<path d="M214.756 188.731L153.397 106.154L145.309 117.502L188.246 175.159C188.917 176.06 188.274 177.339 187.149 177.339H148.685C148.24 177.339 147.823 177.123 147.567 176.758L118.036 134.758C117.702 134.284 117.706 133.651 118.043 133.179L209.129 6.00838C209.776 5.10481 209.129 3.84815 208.017 3.84815H139.819C139.391 3.84815 138.988 4.04747 138.73 4.3879L110.319 41.7762C109.767 42.5026 108.672 42.4944 108.13 41.761L80.5536 4.40308C80.2958 4.0538 79.8878 3.84815 79.4526 3.84815H12.5996C11.1709 3.84815 10.3423 5.46567 11.177 6.62518L72.7306 92.1259C73.0733 92.6011 73.0739 93.2421 72.7319 93.7186L4.52982 188.749C3.88176 189.653 4.52793 190.91 5.64097 190.91H75.5864C76.0311 190.91 76.4492 190.694 76.7045 190.33L100.757 156.165L98.9478 153.563L100.779 156.133L100.794 156.154L107.853 146.788L109.08 145.16L141.295 190.337C141.552 190.697 141.966 190.91 142.409 190.91H213.658C214.781 190.91 215.426 189.632 214.756 188.731ZM117.121 53.798L143.899 17.4505C144.156 17.1012 144.565 16.8943 145 16.8943H182.443C183.562 16.8943 184.207 18.163 183.547 19.0653L138.346 80.8603C137.804 81.6019 136.697 81.6082 136.147 80.8717L117.126 55.4241C116.766 54.9426 116.765 54.282 117.121 53.798ZM108.95 119.569L97.4578 106.293L88.9075 116.87L100.891 133.676L99.6928 135.338L93.4161 144.04L93.3958 144.011L92.7661 144.89L70.0781 176.569C69.8216 176.927 69.4073 177.14 68.967 177.14H32.3643C31.2506 177.14 30.6045 175.881 31.2544 174.978L101.73 77.0543L93.914 66.0861L93.8247 65.9798L82.3293 81.2602C81.7756 81.9968 80.6664 81.9854 80.1273 81.2387L35.9632 20.0486C35.3113 19.1457 35.9569 17.8846 37.0718 17.8846H74.7388C75.1803 17.8846 75.594 18.0972 75.8499 18.4553L129.37 93.1137C129.715 93.5946 129.71 94.2425 129.359 94.719L111.085 119.486C110.564 120.191 109.523 120.231 108.95 119.569Z" fill="white" stroke="white" stroke-width="7.01155" stroke-miterlimit="10"/>
</svg>
