<svg width="700" height="624" viewBox="0 0 700 624" fill="none" xmlns="http://www.w3.org/2000/svg">
<path d="M689.123 606.881L491.148 340.288L465.055 376.924L603.59 563.064C605.755 565.973 603.678 570.104 600.05 570.104H475.947C474.51 570.104 473.163 569.405 472.338 568.229L377.059 432.633C375.981 431.103 375.992 429.058 377.081 427.534L670.967 16.9742C673.056 14.057 670.967 10 667.38 10H447.34C445.96 10 444.66 10.6435 443.827 11.7425L352.159 132.448C350.379 134.793 346.845 134.767 345.095 132.399L256.122 11.7915C255.29 10.6639 253.974 10 252.57 10H35.1091C31.2339 10 28.9859 14.3868 31.2491 17.5324L230.881 294.999C231.987 296.533 231.989 298.602 230.885 300.14L10.8332 606.94C8.74221 609.857 10.827 613.916 14.4183 613.916H240.095C241.53 613.916 242.879 613.217 243.703 612.043L321.308 501.745L315.47 493.345L321.379 501.641L321.426 501.709L344.202 471.471L348.161 466.215L452.102 612.065C452.93 613.228 454.269 613.916 455.696 613.916H685.579C689.203 613.916 691.284 609.79 689.123 606.881ZM374.105 171.259L460.503 53.9143C461.335 52.7867 462.653 52.1187 464.056 52.1187H584.865C588.475 52.1187 590.556 56.2145 588.426 59.1276L442.588 258.628C440.838 261.023 437.267 261.043 435.491 258.665L374.122 176.51C372.961 174.955 372.956 172.822 374.105 171.259ZM347.742 383.595L310.663 340.737L283.076 374.883L321.741 429.14L317.874 434.504L297.622 462.601L297.557 462.507L295.525 465.345L222.323 567.616C221.495 568.774 220.159 569.46 218.738 569.46H100.64C97.0472 569.46 94.9623 565.395 97.0594 562.48L324.447 246.341L299.229 210.931L298.941 210.588L261.851 259.919C260.065 262.297 256.486 262.261 254.746 259.85L112.252 62.3021C110.149 59.387 112.232 55.3157 115.829 55.3157H237.361C238.785 55.3157 240.12 56.0021 240.946 57.1583L413.627 298.187C414.739 299.74 414.725 301.832 413.592 303.37L354.63 383.328C352.95 385.603 349.592 385.734 347.742 383.595Z" fill="#1C1B1E" stroke="#1C1B1E" stroke-width="19.021" stroke-miterlimit="10"/>
</svg>
